<svg width="56" height="56" viewBox="0 0 56 56" fill="none" xmlns="http://www.w3.org/2000/svg">
<path d="M14 34H10.2331C8.52518 34 7.00563 35.0845 6.4504 36.6997L2.3254 48.6997C1.43274 51.2965 3.36217 54 6.10815 54H49.8987C52.6447 54 54.5741 51.2965 53.6814 48.6997L49.5564 36.6997C49.0012 35.0845 47.4817 34 45.7737 34H45.5" stroke="#545454" stroke-width="4" stroke-linecap="round" stroke-linejoin="round"/>
<ellipse cx="47.0036" cy="42.9999" rx="1.5" ry="2" transform="rotate(-20.7391 47.0036 42.9999)" fill="#545454"/>
<path d="M26.5 13.75C29.3995 13.75 31.75 11.3995 31.75 8.5C31.75 5.6005 29.3995 3.25 26.5 3.25C23.6005 3.25 21.25 5.6005 21.25 8.5C21.25 11.3995 23.6005 13.75 26.5 13.75Z" stroke="#545454" stroke-width="3.5"/>
<path d="M34.8703 20.0606L34.8689 20.0592C34.8402 20.0309 34.8102 20.001 34.7787 19.9696C33.9918 19.186 32.2988 17.5 29.2236 17.5H29.2213H29.219H29.2166H29.2141H29.2116H29.2091H29.2065H29.2039H29.2012H29.1985H29.1958H29.193H29.1901H29.1873H29.1844H29.1814H29.1784H29.1754H29.1723H29.1692H29.166H29.1628H29.1596H29.1563H29.153H29.1496H29.1462H29.1427H29.1393H29.1357H29.1322H29.1286H29.1249H29.1212H29.1175H29.1138H29.1099H29.1061H29.1022H29.0983H29.0943H29.0903H29.0863H29.0822H29.0781H29.0739H29.0698H29.0655H29.0613H29.0569H29.0526H29.0482H29.0438H29.0393H29.0348H29.0303H29.0257H29.0211H29.0164H29.0118H29.007H29.0023H28.9975H28.9926H28.9878H28.9828H28.9779H28.9729H28.9679H28.9628H28.9577H28.9526H28.9475H28.9422H28.937H28.9317H28.9264H28.9211H28.9157H28.9103H28.9048H28.8993H28.8938H28.8883H28.8827H28.877H28.8714H28.8657H28.8599H28.8542H28.8484H28.8425H28.8367H28.8307H28.8248H28.8188H28.8128H28.8068H28.8007H28.7946H28.7884H28.7823H28.7761H28.7698H28.7635H28.7572H28.7509H28.7445H28.7381H28.7316H28.7252H28.7187H28.7121H28.7055H28.6989H28.6923H28.6856H28.6789H28.6722H28.6654H28.6586H28.6518H28.6449H28.638H28.6311H28.6242H28.6172H28.6101H28.6031H28.596H28.5889H28.5818H28.5746H28.5674H28.5601H28.5529H28.5456H28.5382H28.5309H28.5235H28.5161H28.5086H28.5012H28.4937H28.4861H28.4785H28.471H28.4633H28.4557H28.448H28.4403H28.4325H28.4248H28.417H28.4091H28.4013H28.3934H28.3855H28.3775H28.3696H28.3616H28.3535H28.3455H28.3374H28.3293H28.3211H28.313H28.3048H28.2966H28.2883H28.28H28.2717H28.2634H28.255H28.2467H28.2382H28.2298H28.2213H28.2128H28.2043H28.1958H28.1872H28.1786H28.17H28.1613H28.1527H28.144H28.1352H28.1265H28.1177H28.1089H28.1001H28.0912H28.0823H28.0734H28.0645H28.0555H28.0466H28.0376H28.0285H28.0195H28.0104H28.0013H27.9922H27.983H27.9738H27.9646H27.9554H27.9462H27.9369H27.9276H27.9183H27.9089H27.8996H27.8902H27.8808H27.8713H27.8619H27.8524H27.8429H27.8334H27.8238H27.8143H27.8047H27.795H27.7854H27.7757H27.7661H27.7563H27.7466H27.7369H27.7271H27.7173H27.7075H27.6977H27.6878H27.6779H27.668H27.6581H27.6482H27.6382H27.6282H27.6182H27.6082H27.5981H27.5881H27.578H27.5679H27.5578H27.5476H27.5374H27.5273H27.517H27.5068H27.4966H27.4863H27.476H27.4657H27.4554H27.4451H27.4347H27.4243H27.4139H27.4035H27.393H27.3826H27.3721H27.3616H27.3511H27.3406H27.33H27.3195H27.3089H27.2983H27.2877H27.277H27.2664H27.2557H27.245H27.2343H27.2236H27.2128H27.2021H27.1913H27.1805H27.1697H27.1589H27.148H27.1372H27.1263H27.1154H27.1045H27.0935H27.0826H27.0716H27.0607H27.0497H27.0387H27.0277H27.0166H27.0056H26.9945H26.9834H26.9723H26.9612H26.9501H26.9389H26.9278H26.9166H26.9054H26.8942H26.883H26.8718H26.8605H26.8493H26.838H26.8267H26.8154H26.8041H26.7928H26.7814H26.7701H26.7587H26.7473H26.7359H26.7245H26.7131H26.7016H26.6902H26.6787H26.6673H26.6558H26.6443H26.6328H26.6212H26.6097H26.5981H26.5866H26.575H26.5634H26.5518H26.5402H26.5286H26.517H26.5053H26.4937H26.482H26.4703H26.4586H26.4469H26.4352H26.4235H26.4118H26.4H26.3883H26.3765H26.3648H26.353H26.3412H26.3294H26.3176H26.3057H26.2939H26.2821H26.2702H26.2583H26.2465H26.2346H26.2227H26.2108H26.1989H26.187H26.1751H26.1631H26.1512H26.1392H26.1273H26.1153H26.1033H26.0913H26.0793H26.0673H26.0553H26.0433H26.0313H26.0192H26.0072H25.9951H25.9831H25.971H25.959H25.9469H25.9348H25.9227H25.9106H25.8985H25.8864H25.8743H25.8621H25.85H25.8379H25.8257H25.8136H25.8014H25.7892H25.7771H25.7649H25.7527H25.7405H25.7283H25.7161H25.7039H25.6917H25.6795H25.6673H25.6551H25.6428H25.6306H25.6184H25.6061H25.5939H25.5816H25.5694H25.5571H25.5449H25.5326H25.5203H25.508H25.4958H25.4835H25.4712H25.4589H25.4466H25.4343H25.422H25.4097H25.3974H25.3851H25.3728H25.3605H25.3481H25.3358H25.3235H25.3112H25.2988H25.2865H25.2742H25.2618H25.2495H25.2372H25.2248H25.2125H25.2001H25.1878H25.1754H25.1631H25.1507H25.1384H25.126H25.1137H25.1013H25.089H25.0766H25.0643H25.0519H25.0396H25.0272H25.0148H25.0025H24.9901H24.9778H24.9654H24.9531H24.9407H24.9283H24.916H24.9036H24.8913H24.8789H24.8666H24.8542H24.8419H24.8295H24.8172H24.8048H24.7925H24.7801H24.7678H24.7554H24.7431H24.7308H24.7184H24.7061H24.6938H24.6814H24.6691H24.6568H24.6445H24.6321H24.6198H24.6075H24.5952H24.5829H24.5706H24.5583H24.546H24.5337H24.5214H24.5091H24.4968H24.4845H24.4756C22.8506 17.4931 21.2284 16.6313 19.8518 15.1056C18.4773 13.5822 17.4892 11.5394 17.1345 9.55264C16.8365 7.88342 15.4244 6.25 13.3706 6.25C11.4383 6.25 9.60002 7.8687 9.88825 10.0899C10.5704 15.347 13.7941 21.0962 18.5944 23.4422C18.7468 23.5167 18.8595 23.6184 18.9259 23.7121C18.9882 23.8002 18.9997 23.8641 18.9997 23.9048V45.1294C18.9997 47.129 20.6207 48.75 22.6204 48.75C24.62 48.75 26.241 47.129 26.241 45.1294V36.9778C26.241 36.9111 26.295 36.8571 26.3616 36.8571C26.4282 36.8571 26.4822 36.9111 26.4822 36.9778V45.1294C26.4822 47.129 28.1032 48.75 30.1028 48.75C32.1025 48.75 33.7235 47.129 33.7235 45.1294V29.0845L36.827 32.1538C38.2318 33.5431 40.4931 33.5431 41.8979 32.1538C43.3238 30.7436 43.3251 28.4409 41.9008 27.0291L34.8703 20.0606ZM32.4461 27.8212L32.4471 27.8222L32.4461 27.8212Z" stroke="#545454" stroke-width="3.5"/>
</svg>
