<svg width="56" height="56" viewBox="0 0 56 56" fill="none" xmlns="http://www.w3.org/2000/svg">
<path d="M5.3325 32.3325C4.94198 32.723 4.94198 33.3562 5.3325 33.7467L8.95789 37.3721C9.58786 38.0021 10.665 37.5559 10.665 36.665V34.7404L11.2447 34.834C14.4554 35.3522 16.9137 38.1406 16.9137 41.4965C16.9137 42.1302 16.8264 42.7454 16.6619 43.3266C16.4359 44.1252 16.5759 45.0277 17.2037 45.5705C18.0204 46.2765 19.2871 46.0907 19.6713 45.0819C20.0953 43.9689 20.33 42.7607 20.33 41.4965C20.33 36.2021 16.2869 31.8557 11.1188 31.3756L10.665 31.3334V29.4142C10.665 28.5233 9.58786 28.0771 8.95789 28.7071L5.3325 32.3325Z" fill="#545454"/>
<path d="M3.12626 37.4225C2.30961 36.7165 1.0429 36.9022 0.658655 37.9111C0.234748 39.024 0 40.2322 0 41.4965C0 46.7909 4.04312 51.1373 9.21125 51.6174L9.665 51.6596V53.5788C9.665 54.4697 10.7421 54.9158 11.3721 54.2859L14.9975 50.6605C15.388 50.2699 15.388 49.6368 14.9975 49.2463L11.3721 45.6209C10.7421 44.9909 9.665 45.4371 9.665 46.328V48.2525L9.08534 48.159C5.87458 47.6408 3.41625 44.8523 3.41625 41.4965C3.41625 40.8628 3.50362 40.2476 3.66809 39.6664C3.89408 38.8678 3.75413 37.9653 3.12626 37.4225Z" fill="#545454"/>
<path d="M6.33333 24.8992V24.8337C4.882 23.1887 4 21.028 4 18.6667L4.00003 18.6653C4.00026 18.4544 4.02924 18.2401 4.08975 18.0273L6.78537 9.5892L6.821 9.463C8.24667 4.479 12.8597 1 18.042 1H39.9614C45.1437 1 49.7568 4.479 51.1824 9.463L51.218 9.58913L53.9137 18.0273C53.9742 18.2401 54.0032 18.4544 54.0034 18.6653L54.0034 18.6667C54.0034 21.028 53.1214 23.1887 51.6701 24.8337V45.6667C51.6701 50.814 47.4841 55 42.3368 55H22.3333C21.0447 55 20 53.9553 20 52.6667C20 51.378 21.0447 50.3333 22.3333 50.3333H42.3368C44.9104 50.3333 47.0034 48.2403 47.0034 45.6667V27.706C46.2568 27.8973 45.4751 28 44.6701 28H44.3368C41.5508 28 39.0471 26.775 37.3368 24.8337C35.6264 26.775 33.1227 28 30.3367 28C29.0464 28 28.0034 26.957 28.0034 25.6667H28C28 26.957 30.957 28 29.6667 28C26.8807 28 24.377 26.775 22.6667 24.8337C22.2857 25.266 21.8655 25.6629 21.4115 26.0186C21.4115 26.0186 18.5 28 17 26.5C15.5 25 17.1793 23.0827 17.1793 23.0827C19.0138 22.4537 20.3357 20.712 20.3357 18.6667C20.3357 17.3763 21.3787 16.3333 22.669 16.3333C23.9593 16.3333 25.0023 17.3763 25.0023 18.6667C25.0023 21.2403 27.0953 23.3333 29.669 23.3333C30.941 23.3333 27.9727 24.347 28.0017 25.6119C28.0307 24.347 29.0624 23.3333 30.3344 23.3333C32.9081 23.3333 35.0011 21.2403 35.0011 18.6667C35.0011 17.3763 36.0441 16.3333 37.3344 16.3333C38.6247 16.3333 39.6677 17.3763 39.6677 18.6667C39.6677 21.2403 41.7607 23.3333 44.3344 23.3333H44.6678C47.4491 23.3333 49.2504 20.167 49.3251 18.9607L46.6908 10.7463C45.8368 7.755 43.0671 5.66667 39.9591 5.66667H39.669V10.331C39.669 10.7309 39.5688 11.1071 39.3921 11.4358C38.9991 12.1689 38.2258 12.6667 37.3344 12.6667C36.0441 12.6667 35.0011 11.6237 35.0011 10.3333V5.66667H25.0023V10.3333C25.0023 11.6237 23.9593 12.6667 22.669 12.6667C21.7776 12.6667 21.0043 12.1689 20.6113 11.4358C20.4346 11.1071 20.3344 10.7309 20.3344 10.331V5.66667H18.0443C14.9363 5.66667 12.1667 7.755 11.3127 10.7463L8.67833 18.9607C8.70316 19.3618 8.91887 19.9795 9.29803 20.6256C9.29803 20.6256 11.3003 22.6256 10 24.5C8.69967 26.3744 6.33333 24.8992 6.33333 24.8992Z" fill="#545454"/>
</svg>
