<svg width="56" height="56" viewBox="0 0 56 56" fill="none" xmlns="http://www.w3.org/2000/svg">
<path fill-rule="evenodd" clip-rule="evenodd" d="M15.6655 47H37.3345C41.1577 47 44.2669 43.9352 44.2669 40.1667V24.1818C45.3449 22.9774 46 21.3955 46 19.6667L46 19.6656C45.9998 19.5113 45.9783 19.3544 45.9333 19.1986L43.9311 12.2885L43.9047 12.1961C42.8457 8.54713 39.4194 6 35.5702 6H17.4298C13.5806 6 10.1543 8.54713 9.09533 12.1961L9.06888 12.2885L7.06666 19.1986C7.02172 19.3544 7.00018 19.5113 7.00002 19.6656L7 19.6667C7 21.3955 7.65511 22.9774 8.73311 24.1818V40.1667C8.73311 43.9352 11.8423 47 15.6655 47ZM22.5997 9.41667V12.8333C22.5997 13.778 21.825 14.5417 20.8666 14.5417C20.2045 14.5417 19.6301 14.1773 19.3382 13.6405C19.207 13.3998 19.1326 13.1244 19.1326 12.8316V9.41667H17.4316C15.1231 9.41667 13.0659 10.9456 12.4316 13.1357L10.4749 19.8819C10.5303 20.7651 11.8683 23.0833 13.9342 23.0833H15.6673C17.5789 23.0833 19.1335 21.551 19.1335 19.6667C19.1335 18.722 19.9082 17.9583 20.8666 17.9583C21.825 17.9583 22.5997 18.722 22.5997 19.6667C22.5997 21.551 24.1543 23.0833 26.0659 23.0833C26.3613 23.0833 26.6387 23.0833 26.9341 23.0833C28.8457 23.0833 30.4003 21.551 30.4003 19.6667C30.4003 18.722 31.175 17.9583 32.1334 17.9583C33.0918 17.9583 33.8665 18.722 33.8665 19.6667C33.8665 21.551 35.4211 23.0833 37.3327 23.0833H39.0658C41.1317 23.0833 42.4697 20.7651 42.5251 19.8819L40.5684 13.1357C39.9341 10.9456 37.8769 9.41667 35.5684 9.41667H33.8674V12.8316C33.8674 13.1244 33.793 13.3998 33.6618 13.6405C33.3699 14.1773 32.7955 14.5417 32.1334 14.5417C31.175 14.5417 30.4003 13.778 30.4003 12.8333V9.41667H22.5997ZM26.0642 26.5C23.9949 26.5 22.1352 25.6031 20.8649 24.1818C19.5945 25.6031 17.7349 26.5 15.6655 26.5H13.9324C13.3345 26.5 12.7539 26.4248 12.1993 26.2847V40.1667C12.1993 42.051 13.7539 43.5833 15.6655 43.5833H37.3345C39.2461 43.5833 40.8007 42.051 40.8007 40.1667V26.2847C40.2461 26.4248 39.6655 26.5 39.0676 26.5H37.3345C35.2651 26.5 33.4055 25.6031 32.1351 24.1818C30.8648 25.6031 29.0051 26.5 26.9358 26.5C26.6392 26.5 26.3608 26.5 26.0642 26.5Z" fill="#545454"/>
<path d="M7.37842 34L4.11279 43.5L2.3254 48.6997C1.43274 51.2965 3.36217 54 6.10815 54H49.8987C52.6447 54 54.5741 51.2965 53.6814 48.6997L49.5564 36.6997C49.0012 35.0845 47.4817 34 45.7737 34H45.682" stroke="#545454" stroke-width="4" stroke-linecap="round" stroke-linejoin="round"/>
<ellipse cx="47.0036" cy="42.9999" rx="1.5" ry="2" transform="rotate(-20.7391 47.0036 42.9999)" fill="#545454"/>
<rect x="17" y="30" width="12" height="15" rx="2" stroke="#545454" stroke-width="3"/>
</svg>
