<svg width="56" height="56" viewBox="0 0 56 56" fill="none" xmlns="http://www.w3.org/2000/svg">
<path d="M11.3334 21V25H20.3334V21H11.3334Z" fill="#BF3126"/>
<path fill-rule="evenodd" clip-rule="evenodd" d="M1.23223 49.2322C0.255922 50.2085 0.255922 51.7915 1.23223 52.7678C2.20854 53.7441 3.79146 53.7441 4.76777 52.7678L51.7678 5.76777C52.7441 4.79146 52.7441 3.20854 51.7678 2.23223C50.7915 1.25592 49.2085 1.25592 48.2322 2.23223L46.1825 4.28198C43.9114 2.83745 41.2183 2 38.3334 2H16.6668C10.5099 2 5.50011 7.00981 5.50011 13.1667V14.4267L5.25229 14.5714C3.31365 15.7037 2.00011 17.7782 2.00011 20.1667V48.4644L1.23223 49.2322ZM5.66678 44.7977L26.0001 24.4644V20.1667C26.0001 18.6025 24.7309 17.3333 23.1668 17.3333H8.50011C6.93597 17.3333 5.66678 18.6025 5.66678 20.1667V44.7977ZM29.6668 20.7977L43.5046 6.95984C41.9622 6.13477 40.2014 5.66667 38.3334 5.66667C32.8194 5.66667 28.2869 9.75396 27.4953 15.0433L27.4569 15.2996L27.6442 15.4787C28.8867 16.6669 29.6668 18.3238 29.6668 20.1667V20.7977ZM9.16444 13.1667C9.16444 9.03119 12.529 5.66667 16.6644 5.66667H28.5877L27.7739 6.51318C25.9798 8.37954 24.6779 10.7195 24.0665 13.323L23.976 13.7087H23.5608L23.5442 13.7076C23.4673 13.7024 23.3949 13.6923 23.3414 13.6848L23.3358 13.684C23.2519 13.6722 23.2069 13.6667 23.1644 13.6667H9.16444V13.1667Z" fill="#BF3126"/>
<path d="M25.6668 53H8.53553L12.2022 49.3333H22.0001C24.2092 49.3333 26.0001 47.5425 26.0001 45.3333V35.5354L29.6668 31.8688V49C29.6668 51.2091 27.8759 53 25.6668 53Z" fill="#BF3126"/>
<path d="M49.3334 16.6667C49.3334 15.335 49.0956 14.0579 48.6601 12.8755L51.4425 10.093C52.4388 12.0714 53.0001 14.3048 53.0001 16.6667V40.4409C53.0001 42.0006 51.2942 42.9601 49.9613 42.15L47.2583 40.5071C46.6107 40.1135 45.7964 40.1197 45.1549 40.523L40.5644 43.4092C39.9138 43.8183 39.0863 43.8184 38.4356 43.4094L36.2246 42.0198C35.67 41.6712 35.3334 41.0622 35.3334 40.4072C35.3334 38.91 36.9813 37.9982 38.2498 38.7935L38.4377 38.9114C39.0874 39.3187 39.9128 39.3187 40.5625 38.9114L45.1981 36.0053C45.714 35.6818 46.3683 35.6774 46.8886 35.9937C47.9608 36.6456 49.3334 35.8738 49.3334 34.6189V16.6667Z" fill="#BF3126"/>
</svg>
