<svg width="56" height="56" viewBox="0 0 56 56" fill="none" xmlns="http://www.w3.org/2000/svg">
<path fill-rule="evenodd" clip-rule="evenodd" d="M2.00011 20.6667C2.00011 23.028 2.88211 25.1887 4.33344 26.8337L4.33344 44.6667C4.33344 45.7074 4.50457 46.7088 4.82016 47.6443L2.23223 50.2322C1.25592 51.2085 1.25592 52.7915 2.23223 53.7678C3.20854 54.7441 4.79146 54.7441 5.76777 53.7678L52.7678 6.76777C53.7441 5.79145 53.7441 4.20854 52.7678 3.23223C51.7915 2.25592 50.2085 2.25592 49.2322 3.23223L47.6007 4.86375C45.5249 3.06622 42.8305 2 39.9615 2H16.0421C15.7182 2 15.3965 2.01359 15.0777 2.04029C10.2956 2.44075 6.15767 5.7905 4.82111 10.463L4.7855 10.5891L2.08986 20.0273C2.0823 20.0539 2.07522 20.0806 2.06864 20.1072C2.02255 20.2936 2.00034 20.4808 2.00014 20.6653L2.00011 20.6667ZM44.2885 8.17593C43.0808 7.22427 41.5652 6.66667 39.9592 6.66667H37.6691V11.331C37.6691 11.7309 37.5689 12.1071 37.3922 12.4358C36.9992 13.1689 36.2259 13.6667 35.3345 13.6667C34.0442 13.6667 33.0012 12.6237 33.0012 11.3333V6.66667H23.0024V11.3333C23.0024 12.6237 21.9594 13.6667 20.6691 13.6667C19.8892 13.6667 19.1996 13.2856 18.7761 12.6992C18.7156 12.6154 18.6605 12.5274 18.6114 12.4358C18.4347 12.1071 18.3345 11.7309 18.3345 11.331V6.66667H16.0444C12.9364 6.66667 10.1668 8.755 9.31278 11.7463L6.67844 20.9607C6.70327 21.3618 6.91898 21.9795 7.29814 22.6256C7.29814 22.6256 7.70091 23.0279 8.02785 23.6407C8.8331 24.5648 9.96551 25.3333 11.3358 25.3333H13.6691C14.1975 25.3333 14.7056 25.2451 15.1795 25.0827C17.0139 24.4537 18.3358 22.712 18.3358 20.6667C18.3358 19.3763 19.3788 18.3333 20.6691 18.3333C21.9594 18.3333 23.0024 19.3763 23.0024 20.6667C23.0024 22.9186 24.6049 24.8026 26.7297 25.2384C26.82 25.2569 26.9114 25.2728 27.0035 25.286C27.055 25.2934 27.1068 25.3 27.1588 25.3056L44.2885 8.17593ZM23.4644 29.0001C22.3983 28.4605 21.4495 27.7221 20.6668 26.8337C20.2859 27.266 19.8656 27.6629 19.4116 28.0186C17.8272 29.2599 15.8323 30 13.6668 30H11.3334C10.5284 30 9.74678 29.8973 9.00011 29.706V43.4644L23.4644 29.0001Z" fill="#BF3126"/>
<path d="M13.6668 54C12.7189 54 11.8037 53.8581 10.9412 53.5943L15.2022 49.3333H42.3369C44.9105 49.3333 47.0035 47.2403 47.0035 44.6667V29.706C46.2569 29.8973 45.4752 30 44.6702 30H42.3369C40.1522 30 38.1411 29.2467 36.5501 27.9855L39.893 24.6426C40.6036 25.0805 41.44 25.3333 42.3345 25.3333H44.6679C47.4492 25.3333 49.2505 22.167 49.3252 20.9607L48.0467 16.4888L51.8242 12.7113L53.9138 20.0273C53.9743 20.2401 54.0033 20.4544 54.0035 20.6653L54.0035 20.6667C54.0035 23.028 53.1215 25.1887 51.6702 26.8337V44.6667C51.6702 49.814 47.4842 54 42.3369 54H13.6668Z" fill="#BF3126"/>
</svg>
