<svg width="56" height="56" viewBox="0 0 56 56" fill="none" xmlns="http://www.w3.org/2000/svg">
<g clip-path="url(#clip0_55092_30373)">
<path fill-rule="evenodd" clip-rule="evenodd" d="M27.7648 0C24.339 0 21.5736 2.76541 21.5736 6.19121C21.5736 9.61701 24.339 12.3824 27.7648 12.3824C31.1906 12.3824 33.9561 9.61701 33.9561 6.19121C33.9561 2.76541 31.1906 0 27.7648 0ZM27.7648 4.12747C28.8999 4.12747 29.8286 5.05616 29.8286 6.19121C29.8286 7.32627 28.8999 8.25495 27.7648 8.25495C26.6298 8.25495 25.7011 7.32627 25.7011 6.19121C25.7011 5.05616 26.6298 4.12747 27.7648 4.12747Z" fill="#545454"/>
<path d="M11.2549 14.4462C13.5251 14.4462 15.3824 12.5888 15.3824 10.3187C15.3824 8.04857 13.5251 6.19121 11.2549 6.19121C8.98484 6.19121 7.12747 8.04857 7.12747 10.3187C7.12747 12.5888 8.98484 14.4462 11.2549 14.4462Z" fill="#545454"/>
<path d="M12.9439 18.0276C13.2043 17.3742 12.8376 16.5919 12.136 16.5419C11.8466 16.5213 11.5536 16.5099 11.2549 16.5099C9.21185 16.5099 7.27194 16.9433 5.51776 17.7069C3.99059 18.3673 3 19.8532 3 21.5248V23.7648C3 24.3171 3.44772 24.7648 4 24.7648H11.2868C11.8391 24.7648 12.2868 24.3171 12.2868 23.7648V21.4422C12.2868 20.2415 12.5201 19.0914 12.9439 18.0276Z" fill="#545454"/>
<path d="M48.4022 10.3187C48.4022 12.5888 46.5448 14.4462 44.2747 14.4462C42.0046 14.4462 40.1473 12.5888 40.1473 10.3187C40.1473 8.04857 42.0046 6.19121 44.2747 6.19121C46.5448 6.19121 48.4022 8.04857 48.4022 10.3187Z" fill="#545454"/>
<path d="M52.5297 21.5248C52.5297 19.8532 51.5391 18.3673 50.0119 17.7069C48.2578 16.9433 46.3178 16.5099 44.2747 16.5099C43.9761 16.5099 43.6831 16.5213 43.3937 16.5419C42.6921 16.5919 42.3254 17.3742 42.5858 18.0276C43.0096 19.0914 43.2429 20.2415 43.2429 21.4422V23.7648C43.2429 24.3171 43.6906 24.7648 44.2429 24.7648H51.5297C52.082 24.7648 52.5297 24.3171 52.5297 23.7648V21.5248Z" fill="#545454"/>
<path d="M27.7648 13.9302C31.1287 13.9302 34.1005 14.7144 36.5151 15.7876C38.7439 16.7782 40.1473 19.007 40.1473 21.4422V28.7648C40.1473 29.8694 39.2518 30.7648 38.1473 30.7648H37.8753C36.7708 30.7648 35.8753 29.8694 35.8753 28.7648V20.6374L35.8494 20.5772C35.6591 20.1339 35.5184 19.806 33.9973 19.2134C31.9955 18.4292 29.8905 18.0577 27.7648 18.0577C25.6392 18.0577 23.5342 18.4292 21.5324 19.2134C19.9745 19.8126 19.847 20.1411 19.672 20.5919L19.6544 20.6374H19.672V28.7648C19.672 29.8694 18.7766 30.7648 17.672 30.7648H17.3824C16.2779 30.7648 15.3824 29.8694 15.3824 28.7648V21.4422C15.3824 19.007 16.7858 16.7782 19.0146 15.7876C21.4292 14.7351 24.401 13.9302 27.7648 13.9302Z" fill="#545454"/>
<path fill-rule="evenodd" clip-rule="evenodd" d="M21.2709 41.2022C21.6795 41.2895 22.1752 41.3953 22.7801 41.5237C23.091 41.5897 23.3837 41.3525 23.3837 41.0348V25.7413C23.3837 23.0473 25.5701 20.8608 28.2641 20.8608C30.9581 20.8608 33.1446 23.0473 33.1446 25.7413C33.1446 26.973 33.1383 28.2048 33.132 29.4366C33.1262 30.5631 33.1205 31.6896 33.1196 32.816C33.1194 33.0087 33.2308 33.1832 33.401 33.2738C33.7189 33.4428 34.026 33.6329 34.3341 33.8235C34.6993 34.0495 35.0658 34.2764 35.4533 34.4701L41.1876 37.3373C43.5107 38.5086 44.7796 41.0074 44.3501 43.5452L42.7884 52.74C42.476 54.6336 40.8557 56.0001 38.9426 56.0001H26.6438C25.4334 56.0001 24.2621 55.5121 23.4227 54.6531L16.2387 47.4692C14.7153 45.9458 14.7066 43.4786 16.2191 41.9444C16.961 41.2026 17.9371 40.7926 18.9717 40.7926C19.0346 40.7926 19.087 40.7926 19.1395 40.7945C19.4051 40.8038 19.6691 40.8601 21.2709 41.2022ZM38.9426 52.0958L40.5043 42.901C40.5265 42.7649 40.5337 42.6288 40.527 42.4946C40.4929 41.801 40.088 41.1586 39.45 40.8315L32.6955 37.4542H31.2402C30.1356 37.4542 29.2402 36.5588 29.2402 35.4542V25.7413C29.2402 25.5929 29.2085 25.4531 29.1514 25.3281C28.9984 24.993 28.6623 24.765 28.264 24.765C27.7174 24.765 27.2879 25.1945 27.2879 25.7411V43.9916C27.2879 45.2611 26.1205 46.2093 24.878 45.9492L20.6343 45.0606C20.1478 44.9587 19.8268 45.552 20.1782 45.9035L26.1761 51.9013C26.2742 51.9989 26.4129 52.0692 26.5582 52.0896C26.5862 52.0936 26.6147 52.0958 26.6438 52.0958H38.9426Z" fill="#545454"/>
</g>
<defs>
<clipPath id="clip0_55092_30373">
<rect width="56" height="56" fill="white"/>
</clipPath>
</defs>
</svg>
