<svg width="56" height="56" viewBox="0 0 56 56" fill="none" xmlns="http://www.w3.org/2000/svg">
<path d="M11 34H10.2331C8.52518 34 7.00563 35.0845 6.4504 36.6997L2.3254 48.6997C1.43274 51.2965 3.36217 54 6.10815 54H49.8987C52.6447 54 54.5741 51.2965 53.6814 48.6997L49.5564 36.6997C49.0012 35.0845 47.4817 34 45.7737 34H45.5" stroke="#545454" stroke-width="4" stroke-linecap="round" stroke-linejoin="round"/>
<ellipse cx="47.0036" cy="42.9999" rx="1.5" ry="2" transform="rotate(-20.7391 47.0036 42.9999)" fill="#545454"/>
<path opacity="0.3" d="M37 24H18C22.8661 25.95 26.8552 29.5 29.2796 34H37V24Z" fill="#545454"/>
<path d="M9 39.1667V44H13.9091C13.9091 41.3256 11.7164 39.1667 9 39.1667ZM9 32.7222V35.9444C13.5164 35.9444 17.1818 39.5533 17.1818 44H20.4545C20.4545 37.765 15.3327 32.7222 9 32.7222ZM9 26.2778V29.5C17.1327 29.5 23.7273 35.9928 23.7273 44H27C27 34.2044 18.9327 26.2778 9 26.2778ZM41.7273 15H12.2727C10.4727 15 9 16.45 9 18.2222V23.0556H12.2727V18.2222H41.7273V40.7778H30.2727V44H41.7273C43.5273 44 45 42.55 45 40.7778V18.2222C45 16.45 43.5273 15 41.7273 15ZM15.5455 21.4444V24.0706C16.0691 24.2317 16.5764 24.4572 17.1 24.6667H35.1818V34.3333H27.8345C28.08 34.8006 28.3091 35.2678 28.5218 35.7511C28.7836 36.3311 29.0291 36.9433 29.2418 37.5556H38.4545V21.4444H15.5455Z" fill="#545454"/>
</svg>
