<svg width="56" height="56" viewBox="0 0 56 56" fill="none" xmlns="http://www.w3.org/2000/svg">
<g clip-path="url(#clip0_55092_30374)">
<path fill-rule="evenodd" clip-rule="evenodd" d="M15.1667 0.5C9.00981 0.5 4 5.50981 4 11.6667V12.9267L3.75218 13.0714C1.81354 14.2037 0.5 16.2782 0.5 18.6667V25.6667C0.5 26.6792 1.32081 27.5 2.33333 27.5C3.34585 27.5 4.16667 26.6792 4.16667 25.6667V18.6667C4.16667 17.1025 5.43586 15.8333 7 15.8333H25.6667C27.2308 15.8333 28.5 17.1025 28.5 18.6667V47.8333C28.5 50.0425 26.7091 51.8333 24.5 51.8333H20.3333C19.3208 51.8333 18.5 52.6541 18.5 53.6667C18.5 54.6792 19.3208 55.5 20.3333 55.5H28.1667C30.3758 55.5 32.1667 53.7091 32.1667 51.5V18.6667C32.1667 16.8238 31.3866 15.1669 30.1441 13.9787L29.9568 13.7996L29.9952 13.5433C30.7867 8.25396 35.3193 4.16667 40.8333 4.16667C46.8985 4.16667 51.8333 9.10152 51.8333 15.1667V33.1189C51.8333 34.3738 50.4607 35.1456 49.3885 34.4937C48.8682 34.1774 48.2139 34.1818 47.698 34.5053L43.0624 37.4114C42.4127 37.8187 41.5873 37.8187 40.9376 37.4114L40.7497 37.2935C39.4812 36.4982 37.8333 37.41 37.8333 38.9072C37.8333 39.5622 38.1699 40.1712 38.7244 40.5198L40.9355 41.9094C41.5862 42.3184 42.4137 42.3183 43.0643 41.9092L47.6548 39.023C48.2963 38.6197 49.1106 38.6135 49.7581 39.007L52.4612 40.65C53.794 41.4601 55.5 40.5006 55.5 38.9409V15.1667C55.5 7.08014 48.9199 0.5 40.8333 0.5H15.1667ZM7.66433 11.6667C7.66433 7.53119 11.0289 4.16667 15.1643 4.16667H31.0875L30.2738 5.01318C28.4796 6.87954 27.1778 9.21947 26.5664 11.823L26.4759 12.2087H26.0607L26.0441 12.2076C25.9672 12.2024 25.8948 12.1923 25.8412 12.1848L25.8357 12.184C25.7518 12.1722 25.7068 12.1667 25.6643 12.1667H7.66433V11.6667Z" fill="#545454"/>
<path d="M9.83333 19.5V23.5H22.8333V19.5H9.83333Z" fill="#545454"/>
<path d="M5.8325 31.5395C5.44198 31.9301 5.44198 32.5632 5.8325 32.9537L9.45789 36.5791C10.0879 37.2091 11.165 36.7629 11.165 35.872V33.9475L11.7447 34.041C14.9554 34.5592 17.4137 37.3477 17.4137 40.7035C17.4137 41.3372 17.3264 41.9524 17.1619 42.5336C16.9359 43.3322 17.0759 44.2347 17.7037 44.7775C18.5204 45.4835 19.7871 45.2977 20.1713 44.2889C20.5953 43.176 20.83 41.9678 20.83 40.7035C20.83 35.4091 16.7869 31.0627 11.6188 30.5826L11.165 30.5404V28.6212C11.165 27.7303 10.0879 27.2842 9.45789 27.9141L5.8325 31.5395Z" fill="#545454"/>
<path d="M3.62626 36.6295C2.80961 35.9235 1.5429 36.1093 1.15865 37.1181C0.734748 38.2311 0.5 39.4393 0.5 40.7035C0.5 45.9979 4.54312 50.3443 9.71125 50.8244L10.165 50.8666V52.7858C10.165 53.6767 11.2421 54.1229 11.8721 53.4929L15.4975 49.8675C15.888 49.477 15.888 48.8438 15.4975 48.4533L11.8721 44.8279C11.2421 44.1979 10.165 44.6441 10.165 45.535V47.4595L9.58534 47.366C6.37458 46.8478 3.91625 44.0594 3.91625 40.7035C3.91625 40.0698 4.00362 39.4546 4.16809 38.8734C4.39408 38.0748 4.25413 37.1723 3.62626 36.6295Z" fill="#545454"/>
</g>
<defs>
<clipPath id="clip0_55092_30374">
<rect width="56" height="56" fill="white"/>
</clipPath>
</defs>
</svg>
