<svg width="81" height="80" viewBox="0 0 81 80" fill="none" xmlns="http://www.w3.org/2000/svg">
<g clip-path="url(#clip0_55635_2656)">
<path opacity="0.3" d="M40.4999 13.3334C25.7666 13.3334 13.8333 25.2667 13.8333 40C13.8333 54.7334 25.7666 66.6667 40.4999 66.6667C55.2332 66.6667 67.1666 54.7334 67.1666 40C67.1666 25.2667 55.2332 13.3334 40.4999 13.3334ZM54.6666 53.8334L37.1666 43.3334V23.3334H42.1666V40.8334L57.1666 49.7334L54.6666 53.8334Z" fill="#79767D"/>
<path d="M40.4667 6.66663C22.0667 6.66663 7.16675 21.6 7.16675 40C7.16675 58.4 22.0667 73.3333 40.4667 73.3333C58.9001 73.3333 73.8334 58.4 73.8334 40C73.8334 21.6 58.9001 6.66663 40.4667 6.66663ZM40.5001 66.6666C25.7667 66.6666 13.8334 54.7333 13.8334 40C13.8334 25.2666 25.7667 13.3333 40.5001 13.3333C55.2334 13.3333 67.1668 25.2666 67.1668 40C67.1668 54.7333 55.2334 66.6666 40.5001 66.6666ZM42.1667 23.3333H37.1667V43.3333L54.6668 53.8333L57.1668 49.7333L42.1667 40.8333V23.3333Z" fill="#79767D"/>
</g>
<defs>
<clipPath id="clip0_55635_2656">
<rect width="80" height="80" fill="white" transform="translate(0.5)"/>
</clipPath>
</defs>
</svg>
